<?xml version="1.0" encoding="utf-8"?>
<!-- Generator: Adobe Illustrator 16.0.0, SVG Export Plug-In . SVG Version: 6.00 Build 0)  -->
<!DOCTYPE svg PUBLIC "-//W3C//DTD SVG 1.1//EN" "http://www.w3.org/Graphics/SVG/1.1/DTD/svg11.dtd">
<svg version="1.1" id="图层_1" xmlns="http://www.w3.org/2000/svg" xmlns:xlink="http://www.w3.org/1999/xlink" x="0px" y="0px"
	 width="128px" height="128px" viewBox="0 0 128 128" enable-background="new 0 0 128 128" xml:space="preserve">
<g>
	<circle fill="#192B80" cx="35.308" cy="12.906" r="7.075"/>
	<circle fill="#192B80" cx="66.864" cy="9.313" r="7.075"/>
	<circle fill="#192B80" cx="92.691" cy="12.906" r="7.075"/>
	<circle fill="#192B80" cx="76.745" cy="40.644" r="7.075"/>
	<circle fill="#192B80" cx="63.852" cy="63.592" r="7.075"/>
	<circle fill="#192B80" cx="80.003" cy="86.685" r="7.074"/>
	<circle fill="#192B80" cx="59.789" cy="118.687" r="7.075"/>
	<circle fill="#6E94CD" cx="76.746" cy="19.308" r="4.492"/>
	<circle fill="#6E94CD" cx="92.691" cy="34.58" r="4.491"/>
	<circle fill="#6E94CD" cx="51.231" cy="14.885" r="4.492"/>
	<circle fill="#192B80" cx="60.575" cy="16.387" r="7.075"/>
	<circle fill="#6E94CD" cx="67.649" cy="30.088" r="4.491"/>
	<circle fill="#6E94CD" cx="63.853" cy="42.216" r="4.492"/>
	<circle fill="#6E94CD" cx="60.125" cy="37.724" r="4.492"/>
	<circle fill="#192B80" cx="51.142" cy="36.376" r="7.075"/>
	<circle fill="#6E94CD" cx="35.308" cy="33.569" r="4.492"/>
	<circle fill="#6E94CD" cx="51.231" cy="57.19" r="4.492"/>
	<circle fill="#6E94CD" cx="79.884" cy="67.145" r="4.492"/>
	<circle fill="#6E94CD" cx="47.773" cy="69.504" r="4.492"/>
	<circle fill="#6E94CD" cx="92.355" cy="94.096" r="4.492"/>
	<circle fill="#6E94CD" cx="63.853" cy="84.775" r="4.492"/>
	<circle fill="#6E94CD" cx="67.874" cy="91.176" r="4.492"/>
	<circle fill="#6E94CD" cx="60.125" cy="98.251" r="4.492"/>
	<path fill="#6E94CD" d="M39.8,93.76c0,2.48-2.011,4.491-4.492,4.491c-2.479,0-4.491-2.011-4.491-4.491
		c0-2.483,2.012-4.492,4.491-4.492C37.789,89.268,39.8,91.276,39.8,93.76z"/>
	<circle fill="#6E94CD" cx="80.227" cy="109.031" r="4.491"/>
	<path fill="#6E94CD" d="M52.265,113.3c0,2.479-2.011,4.49-4.492,4.49c-2.48,0-4.491-2.012-4.491-4.49
		c0-2.483,2.011-4.493,4.491-4.493C50.254,108.807,52.265,110.816,52.265,113.3z"/>
	<rect x="33.627" y="23.462" fill="#6E94CD" width="3.363" height="14.037"/>
	<rect x="49.549" y="11.25" fill="#6E94CD" width="3.363" height="14.037"/>
	<rect x="66.305" y="22.27" fill="#6E94CD" width="3.363" height="7.818"/>
	<rect x="74.839" y="16.106" fill="#6E94CD" width="3.363" height="14.038"/>
	<rect x="62.171" y="39.408" fill="#6E94CD" width="3.363" height="14.037"/>
	<rect x="74.839" y="51.176" fill="#6E94CD" width="3.363" height="10.683"/>
	<rect x="91.01" y="24.225" fill="#6E94CD" width="3.363" height="10.683"/>
	<rect x="49.46" y="47.718" fill="#6E94CD" width="3.363" height="10.684"/>
	<rect x="62.171" y="74.268" fill="#6E94CD" width="3.363" height="10.684"/>
	<rect x="78.202" y="69.504" fill="#6E94CD" width="3.363" height="7.36"/>
	<rect x="65.742" y="88.755" fill="#6E94CD" width="3.365" height="10.682"/>
	<rect x="58.443" y="97.401" fill="#6E94CD" width="3.364" height="10.683"/>
	<rect x="46.091" y="69.601" fill="#6E94CD" width="3.364" height="10.683"/>
	<rect x="46.091" y="101.54" fill="#6E94CD" width="3.364" height="10.682"/>
	<rect x="33.627" y="92.908" fill="#6E94CD" width="3.363" height="10.685"/>
	<rect x="91.01" y="94.096" fill="#6E94CD" width="3.363" height="10.684"/>
	<rect x="78.202" y="98.588" fill="#6E94CD" width="3.363" height="10.682"/>
	
		<rect x="76.521" y="12.928" transform="matrix(0.2822 0.9593 -0.9593 0.2822 73.6574 -61.9108)" fill="#6E94CD" width="3.363" height="10.682"/>
	
		<rect x="89.534" y="30.112" transform="matrix(0.2822 0.9593 -0.9593 0.2822 99.4845 -62.0592)" fill="#6E94CD" width="3.363" height="10.683"/>
	
		<rect x="86.519" y="9.805" transform="matrix(0.3116 0.9502 -0.9502 0.3116 75.1101 -73.3819)" fill="#192B80" width="3.363" height="10.685"/>
	
		<rect x="73.157" y="13.264" transform="matrix(0.0334 0.9994 -0.9994 0.0334 90.9361 -56.8133)" fill="#6E94CD" width="3.364" height="10.684"/>
	
		<rect x="79.556" y="33.234" transform="matrix(0.3116 0.9502 -0.9502 0.3116 92.5778 -50.6377)" fill="#192B80" width="3.363" height="10.682"/>
	<rect x="66.313" y="15.543" transform="matrix(1 -0.0099 0.0099 1 -0.1854 0.672)" fill="#192B80" width="3.364" height="7.152"/>
	
		<rect x="65.98" y="16.231" transform="matrix(0.0351 0.9994 -0.9994 0.0351 84.1637 -49.3942)" fill="#192B80" width="3.364" height="5.317"/>
	<rect x="91.009" y="13.965" fill="#192B80" width="3.364" height="10.684"/>
	<rect x="74.839" y="27.89" fill="#192B80" width="3.363" height="10.684"/>
	<rect x="74.839" y="40.645" fill="#192B80" width="3.363" height="10.684"/>
	<rect x="62.17" y="53.06" fill="#192B80" width="3.363" height="10.682"/>
	<rect x="62.17" y="64.259" fill="#192B80" width="3.363" height="10.684"/>
	<rect x="78.202" y="72.152" fill="#192B80" width="3.363" height="10.684"/>
	<rect x="78.202" y="88.417" fill="#192B80" width="3.363" height="10.683"/>
	<rect x="91.009" y="103.015" fill="#192B80" width="3.364" height="10.685"/>
	<rect x="65.743" y="98.585" fill="#192B80" width="3.365" height="10.686"/>
	<rect x="58.444" y="106.881" fill="#192B80" width="3.363" height="10.685"/>
	<rect x="46.091" y="94.095" fill="#192B80" width="3.364" height="10.684"/>
	<rect x="33.627" y="103.015" fill="#192B80" width="3.362" height="10.685"/>
	<rect x="46.091" y="79.61" fill="#192B80" width="3.364" height="10.684"/>
	<rect x="49.46" y="37.725" fill="#192B80" width="3.363" height="10.683"/>
	<rect x="49.46" y="25.138" fill="#192B80" width="3.363" height="10.685"/>
	<rect x="33.627" y="18.882" fill="#192B80" width="3.362" height="10.684"/>
	<rect x="58.444" y="17.784" fill="#192B80" width="3.363" height="10.683"/>
	
		<rect x="70.46" y="59.669" transform="matrix(0.4037 0.9149 -0.9149 0.4037 102.4946 -27.2362)" fill="#192B80" width="3.362" height="10.684"/>
	
		<rect x="57.503" y="59.165" transform="matrix(0.4776 0.8786 -0.8786 0.4776 87.5908 -18.3005)" fill="#192B80" width="3.364" height="10.682"/>
	<circle fill="#6E94CD" cx="76.746" cy="61.683" r="4.492"/>
	
		<rect x="50.584" y="84.263" transform="matrix(0.4709 0.8822 -0.8822 0.4709 106.7057 1.3042)" fill="#192B80" width="3.364" height="10.683"/>
	
		<rect x="80.964" y="105.335" transform="matrix(0.4324 -0.9017 0.9017 0.4324 -52.8859 137.3396)" fill="#6E94CD" width="3.363" height="10.683"/>
	<circle fill="#192B80" cx="92.691" cy="115.432" r="7.075"/>
	
		<rect x="88.819" y="109.191" transform="matrix(-0.4391 0.8985 -0.8985 -0.4391 233.139 83.51)" fill="#192B80" width="3.363" height="10.684"/>
	
		<rect x="76.521" y="103.93" transform="matrix(-0.2335 -0.9724 0.9724 -0.2335 -9.7874 210.8277)" fill="#6E94CD" width="3.362" height="10.684"/>
	<circle fill="#192B80" cx="67.649" cy="111.614" r="7.074"/>
	
		<rect x="45.078" y="107.957" transform="matrix(-0.0436 -0.9991 0.9991 -0.0436 -64.3941 164.9484)" fill="#6E94CD" width="3.364" height="10.683"/>
	<circle fill="#192B80" cx="35.308" cy="114.533" r="7.075"/>
	
		<rect x="55.096" y="90.973" transform="matrix(0.5303 -0.8478 0.8478 0.5303 -54.9879 93.3703)" fill="#6E94CD" width="3.362" height="10.684"/>
	<circle fill="#192B80" cx="47.773" cy="91.176" r="7.074"/>
	<rect x="65.586" y="86.736" fill="#6E94CD" width="7.342" height="3.363"/>
	<rect x="63.754" y="84.377" fill="#6E94CD" width="7.342" height="3.364"/>
	
		<rect x="76.525" y="83.109" transform="matrix(-0.0075 1 -1 -0.0075 167.2451 10.9141)" fill="#192B80" width="3.363" height="10.683"/>
	
		<rect x="74.715" y="80.751" transform="matrix(-0.0075 1 -1 -0.0075 163.0635 10.3484)" fill="#192B80" width="3.363" height="10.684"/>
	
		<rect x="57.555" y="82.552" transform="matrix(-0.4873 -0.8733 0.8733 -0.4873 13.1734 179.3441)" fill="#6E94CD" width="3.365" height="6.506"/>
	
		<rect x="51.362" y="65.706" transform="matrix(-0.4538 -0.8911 0.8911 -0.4538 16.7537 145.7474)" fill="#6E94CD" width="3.363" height="4.066"/>
	
		<rect x="52.879" y="56.906" transform="matrix(0.5059 -0.8626 0.8626 0.5059 -23.8819 76.1818)" fill="#6E94CD" width="3.362" height="4.065"/>
	
		<rect x="56.621" y="58.096" transform="matrix(-0.427 0.9042 -0.9042 -0.427 138.2482 34.155)" fill="#192B80" width="3.364" height="5.567"/>
	
		<rect x="38.119" y="30.67" transform="matrix(-0.1992 0.98 -0.98 -0.1992 81.6142 2.464)" fill="#6E94CD" width="3.363" height="7.818"/>
	
		<rect x="43.206" y="31.911" transform="matrix(-0.1614 0.9869 -0.9869 -0.1614 87.1554 -3.0834)" fill="#192B80" width="3.363" height="7.152"/>
	
		<rect x="62.171" y="26.986" transform="matrix(0.3214 0.947 -0.947 0.3214 72.589 -39.499)" fill="#6E94CD" width="3.364" height="7.818"/>
	
		<rect x="55.923" y="29.153" transform="matrix(0.27 0.9629 -0.9629 0.27 73.5679 -31.5732)" fill="#192B80" width="3.364" height="7.152"/>
	<rect x="58.443" y="27.504" fill="#6E94CD" width="3.364" height="14.038"/>
	<g>
		
			<rect x="89.298" y="88.262" transform="matrix(-0.3878 0.9217 -0.9217 -0.3878 211.5142 44.5001)" fill="#6E94CD" width="3.364" height="8.45"/>
		
			<rect x="84.75" y="89.634" transform="matrix(-0.4388 0.8986 -0.8986 -0.4388 205.6964 52.5727)" fill="#192B80" width="3.365" height="1.764"/>
	</g>
	<g>
		
			<rect x="34.561" y="88.753" transform="matrix(-0.2315 -0.9728 0.9728 -0.2315 -45.8175 149.7652)" fill="#6E94CD" width="3.366" height="8.451"/>
		
			<rect x="39.396" y="90.999" transform="matrix(-0.1774 -0.9841 0.9841 -0.1774 -42.0581 148.6091)" fill="#192B80" width="3.363" height="1.765"/>
	</g>
	
		<rect x="64.043" y="37.557" transform="matrix(0.03 -0.9996 0.9996 0.03 21.8534 105.4988)" fill="#6E94CD" width="2.477" height="7.867"/>
	<rect x="69.047" y="40.354" fill="#192B80" width="7.865" height="2.478"/>
</g>
</svg>
