<?xml version="1.0" encoding="utf-8"?>
<!-- Generator: Adobe Illustrator 23.0.1, SVG Export Plug-In . SVG Version: 6.00 Build 0)  -->
<svg version="1.1" id="图层_1" xmlns="http://www.w3.org/2000/svg" xmlns:xlink="http://www.w3.org/1999/xlink" x="0px" y="0px"
	 viewBox="0 0 949 256" style="enable-background:new 0 0 949 256;" xml:space="preserve">
<style type="text/css">
	.st0{fill:#7095CD;}
	.st1{fill:#1B2D81;}
	.st2{fill:#FFFFFF;}
</style>
<g>
	<circle class="st0" cx="58.8" cy="71.1" r="11.4"/>
	<circle class="st0" cx="87.7" cy="32.5" r="11.4"/>
	<circle class="st0" cx="89.8" cy="113.5" r="11.4"/>
	<circle class="st0" cx="107.6" cy="74.6" r="11.4"/>
	<circle class="st0" cx="122.1" cy="59.2" r="11.4"/>
	<circle class="st0" cx="172.7" cy="70.9" r="11.4"/>
	<circle class="st0" cx="140.4" cy="39.6" r="11.4"/>
	<circle class="st0" cx="143.6" cy="125.2" r="11.4"/>
	<circle class="st0" cx="80.5" cy="139.5" r="11.4"/>
	<circle class="st0" cx="55.9" cy="186.7" r="11.4"/>
	<circle class="st0" cx="114.7" cy="173.2" r="11.4"/>
	<circle class="st0" cx="111.5" cy="193.8" r="11.4"/>
	<circle class="st0" cx="147.3" cy="217.2" r="11.4"/>
	<circle class="st0" cx="174.6" cy="186.4" r="11.4"/>
	<ellipse class="st0" cx="82.6" cy="226.5" rx="11.4" ry="11.4"/>
	<circle class="st1" cx="54.6" cy="28.7" r="17.2"/>
	<circle class="st1" cx="107" cy="28.7" r="17.2"/>
	<circle class="st1" cx="115.8" cy="20.5" r="17.2"/>
	<circle class="st1" cx="168.8" cy="28.7" r="17.2"/>
	<circle class="st1" cx="138.6" cy="83.6" r="17.2"/>
	<circle class="st1" cx="86.4" cy="75.6" r="17.2"/>
	<circle class="st1" cx="109.7" cy="129.7" r="17.2"/>
	<circle class="st1" cx="80" cy="183.2" r="17.2"/>
	<circle class="st1" cx="142.8" cy="174.2" r="17.2"/>
	<circle class="st1" cx="119.7" cy="219.8" r="17.2"/>
	<circle class="st1" cx="104.9" cy="236.2" r="17.2"/>
	<circle class="st1" cx="53" cy="230.1" r="17.2"/>
	<circle class="st1" cx="168.2" cy="231.2" r="17.2"/>
</g>
<g>
	<path d="M405,190.7c-31.3,0.1-56.4-24.4-56.4-54.9c0.1-30.3,25-54.7,56-54.9c31.3-0.1,56.2,24.2,56.2,55
		C460.9,166.4,436.2,190.6,405,190.7z M404.4,178.7c23.8,0.1,43.1-19,43.1-42.7c0-24-18.9-43.2-42.6-43.3c-23.7-0.1-42.8,19-43,43
		C361.8,159.1,381,178.6,404.4,178.7z"/>
	<path d="M886.3,190.7c-31.1,0-55.9-24.3-55.9-54.7c0-30.7,25-55.1,56.2-55c31.1,0.1,55.7,24.3,55.8,54.9
		C942.5,166.6,917.8,190.7,886.3,190.7z M929.1,135.8c0-23.9-19.1-43.1-42.8-43c-23.6,0.1-42.9,19.6-42.8,43.3
		c0.1,23.7,19.5,42.9,43.2,42.8C910.2,178.6,929.2,159.4,929.1,135.8z"/>
	<path d="M648,79.3c25.4,27.7,50.2,54.7,75.8,82.6c0-26.7,0-52.4,0-78.4c4.4,0,8.1,0,12.1,0c0,35.9,0,71.6,0,108.2
		c-25.4-27.4-50.1-54.1-75.8-81.8c0,26.6,0,52,0,77.8c-4.4,0-8.1,0-12.1,0C648,151.8,648,116.1,648,79.3z"/>
	<path d="M539.5,175.6c0,4.5,0,8.2,0,12.1c-20.6,0-41.1,0-62.6,0c1.7-2.2,3-3.8,4.3-5.4c12.2-14.8,24.7-29.5,36.6-44.6
		c4.4-5.7,8.1-12.2,11-18.8c4.9-11.2-1.2-21.8-13.2-24.4c-14.5-3.2-24.5,4.2-25.7,19c-0.1,0.8-0.2,1.6-0.3,2.7c-3.7,0-7.3,0-10.8,0
		c-3.5-12.2,4-26.5,16.4-31.3c8.3-3.2,16.9-3.5,25.4-1.7c16.9,3.6,26.1,18,21.5,35.3c-2,7.6-5.8,15.3-10.5,21.6
		c-7.7,10.4-16.7,19.7-25.2,29.4c-1.5,1.7-3,3.3-5.4,6C514.4,175.6,526.7,175.6,539.5,175.6z"/>
	<path d="M773.7,136.2c0,17.7,0,34.4,0,51.5c-4.2,0-8.1,0-12.4,0c0-34.6,0-69.1,0-104.1c18,0,36.2,0,54.6,0c0,3.6,0,7.2,0,11.2
		c-14,0-27.8,0-42,0c0,10,0,19.6,0,29.6c13.9,0,27.7,0,41.9,0c0,4.1,0,7.6,0,11.7C801.9,136.2,788.1,136.2,773.7,136.2z"/>
	<path d="M273,187.8c-4.6,0-8.4,0-12.7,0c0-30.7,0-61.1,0-92.2c-10.1,0-19.6,0-29.4,0c0-4.4,0-8.1,0-12.1c23.7,0,47.2,0,71,0
		c0,4,0,7.7,0,11.9c-9.7,0-19,0-28.9,0C273,126.4,273,156.9,273,187.8z"/>
	<path d="M316.2,83.4c4.2,0,8,0,12.1,0c0,34.8,0,69.4,0,104.3c-3.9,0-7.8,0-12.1,0C316.2,153,316.2,118.5,316.2,83.4z"/>
	<path d="M610.7,83.4c4.2,0,7.9,0,12.1,0c0,34.8,0,69.3,0,104.3c-4,0-7.8,0-12.1,0C610.7,153,610.7,118.4,610.7,83.4z"/>
	<path d="M584.6,181.1c-0.1,4.8-3.7,8.2-8.7,8.2c-4.9,0-8.6-3.6-8.5-8.4c0-4.9,4-8.7,9-8.5C581.4,172.6,584.7,176.1,584.6,181.1z"/>
	<path class="st2" d="M404.4,178.7c-23.4-0.1-42.6-19.6-42.4-43c0.2-24,19.3-43.1,43-43c23.7,0.1,42.6,19.3,42.6,43.3
		C447.5,159.8,428.2,178.9,404.4,178.7z"/>
	<path class="st2" d="M929.1,135.8c0,23.6-18.9,42.9-42.4,43c-23.7,0.1-43.1-19.1-43.2-42.8c-0.1-23.6,19.2-43.2,42.8-43.3
		C910,92.7,929.1,111.8,929.1,135.8z"/>
</g>
</svg>
