<?xml version="1.0" encoding="utf-8"?>
<!-- Generator: Adobe Illustrator 23.0.1, SVG Export Plug-In . SVG Version: 6.00 Build 0)  -->
<svg version="1.1" id="图层_1" xmlns="http://www.w3.org/2000/svg" xmlns:xlink="http://www.w3.org/1999/xlink" x="0px" y="0px"
	 viewBox="0 0 58.4 98.4" style="enable-background:new 0 0 58.4 98.4;" xml:space="preserve">
<style type="text/css">
	.st0{fill:#7095CD;}
	.st1{fill:#1B2D81;}
</style>
<circle class="st0" cx="9.3" cy="27.4" r="4.3"/>
<circle class="st0" cx="20.2" cy="12.8" r="4.3"/>
<circle class="st0" cx="21" cy="43.4" r="4.3"/>
<circle class="st0" cx="27.7" cy="28.7" r="4.3"/>
<circle class="st0" cx="33.2" cy="22.9" r="4.3"/>
<circle class="st0" cx="52.3" cy="27.3" r="4.3"/>
<circle class="st0" cx="40.1" cy="15.5" r="4.3"/>
<circle class="st0" cx="41.3" cy="47.8" r="4.3"/>
<circle class="st0" cx="17.5" cy="53.2" r="4.3"/>
<circle class="st0" cx="8.2" cy="71" r="4.3"/>
<circle class="st0" cx="30.4" cy="65.9" r="4.3"/>
<circle class="st0" cx="29.2" cy="73.7" r="4.3"/>
<circle class="st0" cx="42.7" cy="82.5" r="4.3"/>
<circle class="st0" cx="53" cy="70.9" r="4.3"/>
<circle class="st0" cx="18.3" cy="86" r="4.3"/>
<circle class="st1" cx="7.7" cy="11.4" r="6.5"/>
<circle class="st1" cx="27.5" cy="11.4" r="6.5"/>
<circle class="st1" cx="30.8" cy="8.3" r="6.5"/>
<circle class="st1" cx="50.8" cy="11.4" r="6.5"/>
<circle class="st1" cx="39.4" cy="32.1" r="6.5"/>
<circle class="st1" cx="19.7" cy="29.1" r="6.5"/>
<circle class="st1" cx="28.5" cy="49.5" r="6.5"/>
<circle class="st1" cx="17.3" cy="69.7" r="6.5"/>
<circle class="st1" cx="41" cy="66.3" r="6.5"/>
<circle class="st1" cx="32.3" cy="83.5" r="6.5"/>
<circle class="st1" cx="26.7" cy="89.7" r="6.5"/>
<circle class="st1" cx="7.1" cy="87.4" r="6.5"/>
<circle class="st1" cx="50.6" cy="87.8" r="6.5"/>
</svg>
