<?xml version="1.0" encoding="utf-8"?>
<!-- Generator: Adobe Illustrator 23.0.1, SVG Export Plug-In . SVG Version: 6.00 Build 0)  -->
<svg version="1.1" id="图层_1" xmlns="http://www.w3.org/2000/svg" xmlns:xlink="http://www.w3.org/1999/xlink" x="0px" y="0px"
	 viewBox="0 0 256 256" style="enable-background:new 0 0 256 256;" xml:space="preserve">
<style type="text/css">
	.st0{fill:#7095CD;}
	.st1{fill:#1B2D81;}
</style>
<g>
	<circle class="st0" cx="33.4" cy="80.1" r="10.2"/>
	<circle class="st0" cx="59.3" cy="45.4" r="10.2"/>
	<circle class="st0" cx="61.2" cy="118" r="10.2"/>
	<circle class="st0" cx="77.1" cy="83.1" r="10.2"/>
	<circle class="st0" cx="90.1" cy="69.4" r="10.2"/>
	<circle class="st0" cx="135.4" cy="79.9" r="10.2"/>
	<circle class="st0" cx="106.5" cy="51.9" r="10.2"/>
	<circle class="st0" cx="109.3" cy="128.4" r="10.2"/>
	<circle class="st0" cx="52.8" cy="141.2" r="10.2"/>
	<circle class="st0" cx="30.8" cy="183.5" r="10.2"/>
	<circle class="st0" cx="83.6" cy="171.3" r="10.2"/>
	<circle class="st0" cx="80.6" cy="189.8" r="10.2"/>
	<circle class="st0" cx="112.7" cy="210.8" r="10.2"/>
	<circle class="st0" cx="137" cy="183.3" r="10.2"/>
	<circle class="st0" cx="54.9" cy="219.1" r="10.2"/>
	<circle class="st1" cx="29.6" cy="42" r="15.4"/>
	<circle class="st1" cx="76.5" cy="42" r="15.4"/>
	<circle class="st1" cx="84.4" cy="34.9" r="15.4"/>
	<circle class="st1" cx="131.8" cy="42" r="15.4"/>
	<circle class="st1" cx="104.8" cy="91.3" r="15.4"/>
	<circle class="st1" cx="58" cy="84.1" r="15.4"/>
	<circle class="st1" cx="79.1" cy="132.5" r="15.4"/>
	<circle class="st1" cx="52.5" cy="180.4" r="15.4"/>
	<circle class="st1" cx="108.7" cy="172.3" r="15.4"/>
	<circle class="st1" cx="88.1" cy="213" r="15.4"/>
	<circle class="st1" cx="74.7" cy="227.8" r="15.4"/>
	<circle class="st1" cx="28.2" cy="222.3" r="15.4"/>
	<circle class="st1" cx="131.4" cy="223.2" r="15.4"/>
</g>
</svg>
