<?xml version="1.0" encoding="utf-8"?>
<!-- Generator: Adobe Illustrator 23.0.1, SVG Export Plug-In . SVG Version: 6.00 Build 0)  -->
<svg version="1.1" id="图层_1" xmlns="http://www.w3.org/2000/svg" xmlns:xlink="http://www.w3.org/1999/xlink" x="0px" y="0px"
	 viewBox="0 0 256 256" style="enable-background:new 0 0 256 256;" xml:space="preserve">
<style type="text/css">
	.st0{fill:#7095CD;}
	.st1{fill:#1B2D81;}
</style>
<g>
	<circle class="st0" cx="77.8" cy="71.5" r="11.4"/>
	<circle class="st0" cx="106.7" cy="32.9" r="11.4"/>
	<circle class="st0" cx="108.8" cy="113.9" r="11.4"/>
	<circle class="st0" cx="126.6" cy="75" r="11.4"/>
	<circle class="st0" cx="141.1" cy="59.6" r="11.4"/>
	<circle class="st0" cx="191.7" cy="71.3" r="11.4"/>
	<circle class="st0" cx="159.4" cy="40" r="11.4"/>
	<circle class="st0" cx="162.6" cy="125.6" r="11.4"/>
	<circle class="st0" cx="99.5" cy="139.9" r="11.4"/>
	<circle class="st0" cx="74.9" cy="187.1" r="11.4"/>
	<circle class="st0" cx="133.7" cy="173.6" r="11.4"/>
	<circle class="st0" cx="130.5" cy="194.2" r="11.4"/>
	<circle class="st0" cx="166.3" cy="217.6" r="11.4"/>
	<circle class="st0" cx="193.6" cy="186.8" r="11.4"/>
	
		<ellipse transform="matrix(3.327792e-02 -0.9994 0.9994 3.327792e-02 -128.4507 320.88)" class="st0" cx="101.6" cy="226.8" rx="11.4" ry="11.4"/>
	<circle class="st1" cx="73.6" cy="29.1" r="17.2"/>
	<circle class="st1" cx="126" cy="29.1" r="17.2"/>
	<circle class="st1" cx="134.8" cy="20.9" r="17.2"/>
	<circle class="st1" cx="187.8" cy="29.1" r="17.2"/>
	<circle class="st1" cx="157.6" cy="84" r="17.2"/>
	<circle class="st1" cx="105.4" cy="76" r="17.2"/>
	<circle class="st1" cx="128.7" cy="130.1" r="17.2"/>
	<circle class="st1" cx="99" cy="183.6" r="17.2"/>
	<circle class="st1" cx="161.8" cy="174.6" r="17.2"/>
	<circle class="st1" cx="138.7" cy="220.2" r="17.2"/>
	<circle class="st1" cx="123.9" cy="236.6" r="17.2"/>
	<circle class="st1" cx="72" cy="230.5" r="17.2"/>
	<circle class="st1" cx="187.2" cy="231.6" r="17.2"/>
</g>
</svg>
