<?xml version="1.0" encoding="utf-8"?>
<!-- Generator: Adobe Illustrator 23.0.1, SVG Export Plug-In . SVG Version: 6.00 Build 0)  -->
<svg version="1.1" id="图层_1" xmlns="http://www.w3.org/2000/svg" xmlns:xlink="http://www.w3.org/1999/xlink" x="0px" y="0px"
	 viewBox="0 0 949 256" style="enable-background:new 0 0 949 256;" xml:space="preserve">
<style type="text/css">
	.st0{fill:#7095CD;}
	.st1{fill:#1B2D81;}
</style>
<g>
	<g>
		<circle class="st0" cx="84.2" cy="79.1" r="10.6"/>
		<circle class="st0" cx="111.3" cy="42.9" r="10.6"/>
		<circle class="st0" cx="113.2" cy="118.7" r="10.6"/>
		<circle class="st0" cx="129.8" cy="82.3" r="10.6"/>
		<circle class="st0" cx="143.4" cy="68" r="10.6"/>
		<circle class="st0" cx="190.7" cy="78.9" r="10.6"/>
		<circle class="st0" cx="160.5" cy="49.7" r="10.6"/>
		<circle class="st0" cx="163.4" cy="129.6" r="10.6"/>
		<circle class="st0" cx="104.5" cy="142.8" r="10.6"/>
		<circle class="st0" cx="81.6" cy="187" r="10.6"/>
		<circle class="st0" cx="136.6" cy="174.2" r="10.6"/>
		<circle class="st0" cx="133.5" cy="193.5" r="10.6"/>
		<circle class="st0" cx="167" cy="215.5" r="10.6"/>
		<circle class="st0" cx="192.3" cy="186.8" r="10.6"/>
		<circle class="st0" cx="106.7" cy="224.2" r="10.6"/>
		<circle class="st1" cx="80.2" cy="39.4" r="16"/>
		<circle class="st1" cx="129.2" cy="39.4" r="16"/>
		<circle class="st1" cx="137.4" cy="32" r="16"/>
		<circle class="st1" cx="186.9" cy="39.4" r="16"/>
		<circle class="st1" cx="158.7" cy="90.8" r="16"/>
		<circle class="st1" cx="109.9" cy="83.4" r="16"/>
		<circle class="st1" cx="131.9" cy="133.8" r="16"/>
		<circle class="st1" cx="104.1" cy="183.8" r="16"/>
		<circle class="st1" cx="162.8" cy="175.3" r="16"/>
		<circle class="st1" cx="141.3" cy="217.8" r="16"/>
		<circle class="st1" cx="127.3" cy="233.2" r="16"/>
		<circle class="st1" cx="78.8" cy="227.4" r="16"/>
		<circle class="st1" cx="186.4" cy="228.4" r="16"/>
	</g>
	<g>
		<path d="M316.8,87.5v85.8h-13.3V87.5h-31.1v-12h76.9v12H316.8z"/>
		<path d="M362.9,173.3V75.5h13.3v97.8H362.9z"/>
		<path d="M393.9,123.6c0-14.1,3.5-26,10.6-35.5c7.1-9.5,16.7-14.3,28.7-14.3c13.6,0,24,4.4,31.2,13.1c7.2,8.8,10.8,21,10.8,36.6
			c0,16.1-3.6,28.6-10.9,37.7c-7.3,9.1-17.6,13.6-31.2,13.6c-12.3,0-22-4.8-28.9-14.4C397.4,150.9,393.9,138.6,393.9,123.6z
			 M407.9,123.6c0,11.2,2.2,20.6,6.6,28.1c4.4,7.5,10.7,11.3,18.7,11.3c9.1,0,16.1-3.4,20.9-10.3c4.8-6.9,7.2-16.6,7.2-29
			c0-25.2-9.3-37.8-28-37.8c-8.3,0-14.6,3.4-18.9,10.1C410.1,102.7,407.9,111.9,407.9,123.6z"/>
		<path d="M485.2,173.3v-2.7l30.6-46.9c6.4-9.8,9.6-18.2,9.6-25c0-9-5.1-13.5-15.3-13.5c-3.6,0-7,0.9-10.1,2.8
			c-3.2,1.9-5.5,4.3-6.9,7.2l-8.6-7.1c1.5-4.4,4.5-7.8,8.9-10.4c4.4-2.6,9.8-3.9,16-3.9c9.4,0,16.7,2.2,22,6.5
			c5.3,4.3,7.9,10.5,7.9,18.4c0,7.3-3.5,16.6-10.5,27.8l-22,34.8h38.3v12H485.2z"/>
		<path d="M575.9,154.5c2.8,0,5.1,1,7.1,2.9c2,2,2.9,4.3,2.9,7.1c0,2.8-1,5.1-2.9,7.1c-2,2-4.3,3-7.1,3c-2.8,0-5.1-1-7.1-3
			c-2-2-2.9-4.3-2.9-7.1c0-2.8,1-5.1,2.9-7.1C570.8,155.5,573.2,154.5,575.9,154.5z"/>
		<path d="M614.8,173.3V75.5h13.3v97.8H614.8z"/>
		<path d="M713.7,174.6l-50.5-71.5v70.1h-12.7V75.5h5.3l49.2,67.6V75.5h12.7v99.1H713.7z"/>
		<path d="M751.1,87.5v27.2h34.4V126h-34.4v47.2h-13.3V75.5h60.4v12H751.1z"/>
		<path d="M804.8,123.6c0-14.1,3.5-26,10.6-35.5c7.1-9.5,16.7-14.3,28.7-14.3c13.6,0,24,4.4,31.2,13.1c7.2,8.8,10.8,21,10.8,36.6
			c0,16.1-3.6,28.6-10.9,37.7c-7.3,9.1-17.6,13.6-31.2,13.6c-12.3,0-22-4.8-28.9-14.4S804.8,138.6,804.8,123.6z M818.8,123.6
			c0,11.2,2.2,20.6,6.6,28.1c4.4,7.5,10.7,11.3,18.7,11.3c9.1,0,16.1-3.4,20.9-10.3c4.8-6.9,7.2-16.6,7.2-29
			c0-25.2-9.3-37.8-28-37.8c-8.3,0-14.6,3.4-18.9,10.1C821,102.7,818.8,111.9,818.8,123.6z"/>
	</g>
</g>
</svg>
